PathFileType	4	(X/Y/Z)	/home/abdul/Desktop/myosuite/custom_workspace/IK/output/S14_12_3.trc
DataRate	CameraRate	NumFrames	NumMarkers	Units	OrigDataRate	OrigDataStartFrame	OrigNumFrames
200.0	200.0	44	3	mm	200.0	1064	2126
Frame#	Time	V_Shoulder			V_Elbow			V_Wrist		
		X1	Y1	Z1	X2	Y2	Z2	X3	Y3	Z3

1064	5.315	-171.69956592740564	712.8593055917922	310.05142042317715	-205.11771874527068	478.1655124018141	72.51659784658088	-111.6248279174109	527.2284859940688	289.6024894249957
1065	5.32	-171.6652903576559	712.8928224426357	310.0841855933788	-205.18000057352089	478.01196767363376	72.76969433595065	-111.58652589244261	527.2487329110901	289.7668602450085
1066	5.325	-171.6312229586143	712.925893982752	310.1163062322599	-205.24283943779005	477.8609023693203	73.01954754632749	-111.54964610609917	527.2684568085934	289.9286796993356
1067	5.33	-171.5973797576821	712.9585104120015	310.147788404663	-205.3061144737266	477.7122100524475	73.26625129013468	-111.51419438480158	527.2877767470279	290.0880791356443
1068	5.335	-171.5637766150403	712.990661413303	310.17863894135604	-205.36970613432823	477.56578130570847	73.5099020435384	-111.48017421887613	527.3068073847387	290.2451906023083
1069	5.34	-171.53042919786253	713.0223361599201	310.20886541326354	-205.43349656400733	477.4215040923157	73.75059857449754	-111.44758677384854	527.3256584632085	290.40014644581083
1070	5.345	-171.49735295486371	713.0535233246495	310.2384761042481	-205.4973699626217	477.2792641239191	73.98844156656675	-111.4164309059759	527.3444343121814	290.55307891337253
1071	5.35	-171.46456309124105	713.0842110909449	310.26747998252887	-205.56121293779512	477.1389452338584	74.2235332396099	-111.38670318148576	527.3632333768077	290.70411976168197
1072	5.355	-171.4320745440623	713.1143871659993	310.29588667082385	-205.6249148439201	477.0004297545429	74.45597696858374	-111.3583978989989	527.3821477689038	290.8533998725502
1073	5.36	-171.3999019581553	713.1440387958063	310.32370641530434	-205.68836810631205	476.863598897742	74.6858769015526	-111.33150711462642	527.4012628443706	291.0010488762538
1074	5.365	-171.36805966255108	713.1731527822035	310.35095005345585	-205.75146852906815	476.7283331365543	74.9133375780955	-111.30602066925294	527.4206568087418	291.14719478327874
1075	5.37	-171.3365616475321	713.2017155018998	310.37762898093746	-205.81411558527742	476.5945125878178	75.13846354926272	-111.28192621754556	527.4404003527613	291.2919636251311
1076	5.375	-171.30542154233567	713.2297129274733	310.4037551175343	-205.87621268832788	476.46201739371816	75.36135900023567	-111.25920925826209	527.4605563197985	291.43547910483284
1077	5.38	-171.27465259355975	713.2571306503227	310.42934087230026	-205.93766744316417	476.3307281013526	75.58212737683597	-111.23785316547193	527.4811794068071	291.57786225768353
1078	5.385	-171.24426764431863	713.2839539055408	310.45439910798797	-205.99839187646108	476.2005260390125	75.80087101702168	-111.21783922034845	527.502315900428	291.71923112283184
1079	5.39	-171.2142791141927	713.3101675986768	310.4789431048636	-206.05830264479522	476.07129368795336	76.01769078849622	-111.19914664324199	527.5240034497044	291.85970042617055
1080	5.395	-171.18469898001544	713.3357563343365	310.50298652400573	-206.11732122002223	475.94291504843443	76.23268573354306	-111.18175262579746	527.5462708767507	291.99938127504225
1081	5.4	-171.15553875753838	713.3607044465715	310.5265433701855	-206.1753740511901	475.81527599882736	76.4459527221822	-111.16563236293783	527.5691380265674	292.1383808652225
1082	5.405	-171.1268094840128	713.3849960309894	310.5496279544277	-206.23239270244926	475.68826464661373	76.65758611472688	-111.1507590845971	527.5926156570392	292.2768022006279
1083	5.41	-171.09852170172482	713.4086149785179	310.57225485635075	-206.2883139665517	475.56177167011526	76.86767743479683	-111.13710408714874	527.6167053699894	292.414743826188
1084	5.415	-171.07068544251834	713.4315450107424	310.59443888638305	-206.34307995366206	475.435690649832	77.07631505382085	-111.1246367645403	527.6413995839902	292.55229957430606
1085	5.42	-171.04331021333795	713.4537697167324	310.616195047954	-206.39663815533842	475.3099183882955	77.2835838880348	-111.11332463921009	527.6666815494457	292.6895583253339
1086	5.425	-171.01640498282097	713.4752725912623	310.6375384997537	-206.44894148367158	475.18435521738263	77.48956510895087	-111.10313339292608	527.6925254062762	292.82660378247886
1087	5.43	-170.9899781689666	713.4960370743294	310.6584845181583	-206.4999482857039	475.0589052920781	77.69433586824124	-111.09402689775064	527.7188962843378	292.963514261563
1088	5.435	-170.9640376279065	713.5160465918594	310.6790484599126	-206.549622333378	474.9334768697179	77.89796903794351	-111.08596724739564	527.7457504465108	293.1003624960598
1089	5.44	-170.93859064379885	713.5352845974908	310.69924572516317	-206.5979327893919	474.80798257379683	78.10053296685523	-111.07891478929031	527.7730354741868	293.23721545783013
1090	5.445	-170.91364391986545	713.5537346153196	310.7190917209304	-206.64485414946154	474.68233964147794	78.30209125394295	-111.07282815773834	527.8006904946809	293.374134193988
1091	5.45	-170.8892035705886	713.5713802834815	310.7386018251089	-206.69036616161065	474.5564701539961	78.50270253954464	-111.06766430858951	527.8286464498808	293.51117368032783
1092	5.455	-170.86527511508132	713.5882053984448	310.75779135108036	-206.73445372322152	474.43030124921074	78.70242031509522	-111.06337855589499	527.8568264052475	293.64838269174595
1093	5.46	-170.84186347164257	713.6041939598845	310.7766755130235	-206.777106756691	474.30376531562786	78.90129275205204	-111.05992461105188	527.8851458980664	293.7858036900909
1094	5.465	-170.8189729535051	713.6193302160013	310.7952693919999	-206.8183200646389	474.1768001672742	79.09936255064089	-111.05725462497328	527.9135133236491	293.92347272987206
1095	5.47	-170.79660726578177	713.6335987091488	310.81358790289454	-206.8580931657114	474.04934919888035	79.29666680898347	-111.05531923384115	527.9418303579846	294.06141938225204
1096	5.475	-170.7747695036131	713.6469843216279	310.83164576228523	-206.8964301121144	473.92136152090217	79.49323691310443	-111.05406760901377	527.9699924151432	294.1996666777373
1097	5.48	-170.7534621515147	713.6594723215072	310.84945745731216	-206.9333392900915	473.79279207398145	79.68909844824942	-111.05344751166432	527.9978891375506	294.3382310679651
1098	5.485	-170.73268708392277	713.6710484083242	310.8670372156151	-206.96883320463877	473.6636017225271	79.88427113187676	-111.0534053527224	528.0254049170646	294.47712240696626
1099	5.49	-170.71244556693048	713.6816987585215	310.88439897640427	-207.00292824981221	473.53375732717484	80.07876876861246	-111.05388625867698	528.0524194446203	294.6163439522555
1100	5.495	-170.6927382612066	713.6914100704748	310.90155636272294	-207.03564446604491	473.4032317959641	80.27259922738367	-111.0548341437759	528.0788082860429	294.7558923860686
1101	5.5	-170.67356522608466	713.7001696089643	310.9185226549619	-207.0670052859383	473.27200411415276	80.46576444086689	-111.05619178912428	528.1044434814779	294.89575785702556
1102	5.505	-170.6549259248076	713.7079652489448	310.935310765675	-207.09703727003358	473.140059352673	80.65826042730774	-111.05790092914168	528.129194165752	295.0359240424534
1103	5.51	-170.63681923091096	713.7147855184704	310.9519332157484	-207.12576983410122	473.0073886553114	80.85007733468616	-111.0599023457863	528.1529272068456	295.1763682315475
1104	5.515	-170.61924343572392	713.7206196406315	310.9684021119652	-207.1532349695093	472.87398920478245	81.04119950711642	-111.06213597089402	528.1755078595528	295.3170614294891
1105	5.52	-170.60219625696553	713.7254575743606	310.98472912600795	-207.1794669582465	472.7398641679442	81.23160557328583	-111.06454099691132	528.1968004312995	295.45796848257044
1106	5.525	-170.58567484841072	713.7292900539705	311.00092547493256	-207.20450208417793	472.60502262048965	81.42126855664836	-111.06705599622401	528.2166689570136	295.5990482243012
1107	5.53	-170.56967581059735	713.7321086272858	311.01700190314773	-207.22837834211197	472.4694794515243	81.61015600700118	-111.06961904920038	528.2349778798682	295.74025364239094
